<svg width="512" height="512" viewBox="0 0 512 512" fill="none" xmlns="http://www.w3.org/2000/svg">
  <rect width="512" height="512" rx="128" fill="#0B0C0E"/>
  <rect x="32" y="32" width="448" height="448" rx="96" fill="#14171A"/>
  <rect x="64" y="64" width="384" height="384" rx="64" fill="#1B1F24"/>
  <path d="M256 156C256 144.954 264.954 136 276 136H336C347.046 136 356 144.954 356 156V216C356 227.046 347.046 236 336 236H276C264.954 236 256 227.046 256 216V156Z" fill="#7C5CFF"/>
  <path d="M156 156C156 144.954 164.954 136 176 136H236C247.046 136 256 144.954 256 156V216C256 227.046 247.046 236 236 236H176C164.954 236 156 227.046 156 216V156Z" fill="#B6FF6E"/>
  <path d="M256 276C256 264.954 264.954 256 276 256H336C347.046 256 356 264.954 356 276V336C356 347.046 347.046 356 336 356H276C264.954 356 256 347.046 256 336V276Z" fill="#B6FF6E"/>
  <path d="M156 276C156 264.954 164.954 256 176 256H236C247.046 256 256 264.954 256 276V336C256 347.046 247.046 356 236 356H176C164.954 356 156 347.046 156 336V276Z" fill="#7C5CFF"/>
  <circle cx="256" cy="256" r="24" fill="#E6E8EB" opacity="0.9"/>
</svg>